<svg width="34" height="34" viewBox="0 0 34 34" fill="none" xmlns="http://www.w3.org/2000/svg">
<path d="M27.5074 9.46186C28.9666 11.0117 29.75 12.7499 29.75 15.5677C29.75 20.526 26.2693 24.9701 21.2075 27.1674L19.9424 25.2152C24.667 22.6595 25.5907 19.3431 25.959 17.2521C25.1982 17.6459 24.2023 17.7834 23.2263 17.6927C20.6706 17.4561 18.6561 15.358 18.6561 12.7499C18.6561 11.4349 19.1785 10.1737 20.1083 9.24387C21.0382 8.314 22.2994 7.79161 23.6144 7.79161C25.1345 7.79161 26.588 8.48578 27.5074 9.46186ZM13.3407 9.46186C14.7999 11.0117 15.5833 12.7499 15.5833 15.5677C15.5833 20.526 12.1026 24.9701 7.04083 27.1674L5.77575 25.2152C10.5003 22.6595 11.424 19.3431 11.7923 17.2521C11.0316 17.6459 10.0357 17.7834 9.05958 17.6927C6.50392 17.4561 4.48942 15.358 4.48942 12.7499C4.48942 11.4349 5.01181 10.1737 5.94168 9.24387C6.87155 8.314 8.13272 7.79161 9.44775 7.79161C10.9678 7.79161 12.4213 8.48578 13.3407 9.46186Z" fill="#FB3567" fill-opacity="0.2"/>
</svg>
