<svg width="52" height="40" viewBox="0 0 52 40" fill="none" xmlns="http://www.w3.org/2000/svg">
<path d="M4.61646 36.5519C1.6127 33.3523 0 29.7638 0 23.9468C0 13.7106 7.16527 4.53608 17.5851 0L20.1893 4.03012C10.4636 9.30614 8.56217 16.1527 7.80394 20.4694C9.36997 19.6564 11.4201 19.3727 13.4294 19.5598C18.6904 20.0483 22.8373 24.3796 22.8373 29.7638C22.8373 32.4786 21.7619 35.0822 19.8478 37.0019C17.9336 38.9216 15.3374 40 12.6304 40C9.50121 40 6.50911 38.5669 4.61646 36.5519ZM33.7792 36.5519C30.7754 33.3523 29.1627 29.7638 29.1627 23.9468C29.1627 13.7106 36.328 4.53608 46.7478 0L49.352 4.03012C39.6263 9.30614 37.7249 16.1527 36.9666 20.4694C38.5327 19.6564 40.5828 19.3727 42.5921 19.5598C47.8531 20.0483 52 24.3796 52 29.7638C52 32.4786 50.9246 35.0822 49.0105 37.0019C47.0963 38.9216 44.5001 40 41.7931 40C38.6639 40 35.6718 38.5669 33.7792 36.5519Z" fill="#FB3567"/>
</svg>
