<svg width="20" height="20" viewBox="0 0 20 20" fill="none" xmlns="http://www.w3.org/2000/svg">
<path d="M9.99998 11.6668V18.3335H3.33331C3.33331 16.5654 4.03569 14.8697 5.28593 13.6195C6.53618 12.3692 8.23187 11.6668 9.99998 11.6668ZM9.99998 10.8335C7.23748 10.8335 4.99998 8.596 4.99998 5.8335C4.99998 3.071 7.23748 0.833496 9.99998 0.833496C12.7625 0.833496 15 3.071 15 5.8335C15 8.596 12.7625 10.8335 9.99998 10.8335ZM17.3566 17.3568L15 19.7143L12.6433 17.3568C12.177 16.8907 11.8595 16.2968 11.7308 15.6501C11.6021 15.0035 11.668 14.3332 11.9203 13.7241C12.1725 13.1149 12.5998 12.5943 13.148 12.228C13.6962 11.8616 14.3407 11.6661 15 11.6661C15.6593 11.6661 16.3038 11.8616 16.852 12.228C17.4002 12.5943 17.8274 13.1149 18.0797 13.7241C18.3319 14.3332 18.3979 15.0035 18.2692 15.6501C18.1405 16.2968 17.8229 16.8907 17.3566 17.3568ZM15 14.1668C14.779 14.1668 14.567 14.2546 14.4107 14.4109C14.2544 14.5672 14.1666 14.7791 14.1666 15.0002C14.1666 15.2212 14.2544 15.4331 14.4107 15.5894C14.567 15.7457 14.779 15.8335 15 15.8335C15.221 15.8335 15.433 15.7457 15.5892 15.5894C15.7455 15.4331 15.8333 15.2212 15.8333 15.0002C15.8333 14.7791 15.7455 14.5672 15.5892 14.4109C15.433 14.2546 15.221 14.1668 15 14.1668Z" fill="#FB3567"/>
</svg>
