<svg width="20" height="20" viewBox="0 0 20 20" fill="none" xmlns="http://www.w3.org/2000/svg">
<g clip-path="url(#clip0_4_1160)">
<path d="M1.86916 5.7119L9.57499 1.0919C9.7045 1.01419 9.8527 0.973145 10.0037 0.973145C10.1548 0.973145 10.303 1.01419 10.4325 1.0919L18.1308 5.71274C18.1926 5.74975 18.2437 5.80214 18.2792 5.86479C18.3147 5.92745 18.3333 5.99823 18.3333 6.07024V16.6669C18.3333 16.8879 18.2455 17.0999 18.0892 17.2562C17.933 17.4124 17.721 17.5002 17.5 17.5002H2.49999C2.27898 17.5002 2.06701 17.4124 1.91073 17.2562C1.75445 17.0999 1.66666 16.8879 1.66666 16.6669V6.0694C1.66664 5.9974 1.68529 5.92661 1.72078 5.86396C1.75627 5.8013 1.80739 5.74891 1.86916 5.7119ZM15.2883 6.87024L10.0508 11.4027L4.70582 6.86524L3.62749 8.13524L10.0608 13.5977L16.3783 8.13107L15.2883 6.87024Z" fill="#FB3567"/>
</g>
<defs>
<clipPath id="clip0_4_1160">
<rect width="20" height="20" fill="white"/>
</clipPath>
</defs>
</svg>
