<svg width="20" height="20" viewBox="0 0 20 20" fill="none" xmlns="http://www.w3.org/2000/svg">
<g clip-path="url(#clip0_192_3521)">
<path d="M1.66666 18.3333C1.66666 16.5651 2.36904 14.8694 3.61928 13.6192C4.86952 12.369 6.56521 11.6666 8.33332 11.6666C10.1014 11.6666 11.7971 12.369 13.0474 13.6192C14.2976 14.8694 15 16.5651 15 18.3333H1.66666ZM8.33332 10.8333C5.57082 10.8333 3.33332 8.59575 3.33332 5.83325C3.33332 3.07075 5.57082 0.833252 8.33332 0.833252C11.0958 0.833252 13.3333 3.07075 13.3333 5.83325C13.3333 8.59575 11.0958 10.8333 8.33332 10.8333ZM16.6667 14.1666H20V15.8333H16.6667V14.1666ZM14.1667 9.99992H20V11.6666H14.1667V9.99992ZM15.8333 5.83325H20V7.49992H15.8333V5.83325Z" fill="#FB3567"/>
</g>
<defs>
<clipPath id="clip0_192_3521">
<rect width="20" height="20" fill="white"/>
</clipPath>
</defs>
</svg>
