<svg width="18" height="18" viewBox="0 0 18 18" fill="none" xmlns="http://www.w3.org/2000/svg">
<path d="M0.666656 9.16658H17.3333V16.6666C17.3333 16.8876 17.2455 17.0996 17.0892 17.2558C16.933 17.4121 16.721 17.4999 16.5 17.4999H1.49999C1.27898 17.4999 1.06701 17.4121 0.910734 17.2558C0.754454 17.0996 0.666656 16.8876 0.666656 16.6666V9.16658ZM13.1667 2.49992H16.5C16.721 2.49992 16.933 2.58772 17.0892 2.744C17.2455 2.90028 17.3333 3.11224 17.3333 3.33325V7.49992H0.666656V3.33325C0.666656 3.11224 0.754454 2.90028 0.910734 2.744C1.06701 2.58772 1.27898 2.49992 1.49999 2.49992H4.83332V0.833252H6.49999V2.49992H11.5V0.833252H13.1667V2.49992Z" fill="#FB3567"/>
</svg>
