<svg width="18" height="18" viewBox="0 0 18 18" fill="none" xmlns="http://www.w3.org/2000/svg">
<g clip-path="url(#clip0_308_196)">
<path d="M9 10.5V16.5H3C3 14.9087 3.63214 13.3826 4.75736 12.2574C5.88258 11.1321 7.4087 10.5 9 10.5ZM9 9.75C6.51375 9.75 4.5 7.73625 4.5 5.25C4.5 2.76375 6.51375 0.75 9 0.75C11.4862 0.75 13.5 2.76375 13.5 5.25C13.5 7.73625 11.4862 9.75 9 9.75ZM15.621 15.621L13.5 17.7428L11.379 15.621C10.9594 15.2015 10.6735 14.6669 10.5577 14.085C10.4419 13.503 10.5012 12.8997 10.7283 12.3515C10.9553 11.8033 11.3398 11.3347 11.8332 11.005C12.3266 10.6753 12.9066 10.4994 13.5 10.4994C14.0934 10.4994 14.6734 10.6753 15.1668 11.005C15.6602 11.3347 16.0447 11.8033 16.2717 12.3515C16.4988 12.8997 16.5581 13.503 16.4423 14.085C16.3265 14.6669 16.0406 15.2015 15.621 15.621ZM13.5 12.75C13.3011 12.75 13.1103 12.829 12.9697 12.9697C12.829 13.1103 12.75 13.3011 12.75 13.5C12.75 13.6989 12.829 13.8897 12.9697 14.0303C13.1103 14.171 13.3011 14.25 13.5 14.25C13.6989 14.25 13.8897 14.171 14.0303 14.0303C14.171 13.8897 14.25 13.6989 14.25 13.5C14.25 13.3011 14.171 13.1103 14.0303 12.9697C13.8897 12.829 13.6989 12.75 13.5 12.75Z" fill="#FB3567"/>
</g>
<defs>
<clipPath id="clip0_308_196">
<rect width="18" height="18" fill="white"/>
</clipPath>
</defs>
</svg>
